<svg width="64" height="64" viewBox="0 0 64 64" fill="none" xmlns="http://www.w3.org/2000/svg">
<path opacity="0.6" d="M0 32C0 14.3269 14.3269 0 32 0C49.6731 0 64 14.3269 64 32C64 49.6731 49.6731 64 32 64C14.3269 64 0 49.6731 0 32Z" fill="#69B3AF"/>
<path d="M9 32C9 19.2975 19.2975 9 32 9C44.7025 9 55 19.2975 55 32C55 44.7025 44.7025 55 32 55C19.2975 55 9 44.7025 9 32Z" fill="#69B3AF" stroke="white" stroke-width="2"/>
<path d="M29.5469 38.1875C29.2969 37.4271 29.1719 36.6406 29.1719 35.8281C29.1719 34.9948 29.3646 34.2083 29.75 33.4688C30.1458 32.7188 30.8646 31.8646 31.9062 30.9062C33.1458 29.7708 33.9219 28.901 34.2344 28.2969C34.5469 27.6927 34.7031 27.0885 34.7031 26.4844C34.7031 25.5573 34.375 24.8229 33.7188 24.2812C33.0729 23.7396 32.2448 23.4688 31.2344 23.4688C29.3073 23.4688 27.599 24.2135 26.1094 25.7031V22C27.8594 20.9271 29.724 20.3906 31.7031 20.3906C33.7031 20.3906 35.3073 20.8854 36.5156 21.875C37.7344 22.8542 38.3438 24.2292 38.3438 26C38.3438 27.0312 38.1042 27.9948 37.625 28.8906C37.1562 29.776 36.2917 30.776 35.0312 31.8906C33.8229 32.9635 33.0729 33.7812 32.7812 34.3438C32.5 34.9062 32.3594 35.4688 32.3594 36.0312C32.3594 36.7292 32.5312 37.4479 32.875 38.1875H29.5469ZM29.0781 43.1562C29.0781 42.5521 29.3021 42.0365 29.75 41.6094C30.2083 41.1719 30.7552 40.9531 31.3906 40.9531C31.9948 40.9531 32.526 41.1615 32.9844 41.5781C33.4531 41.9948 33.6875 42.5208 33.6875 43.1562C33.6875 43.7604 33.4635 44.276 33.0156 44.7031C32.5781 45.1198 32.0625 45.3281 31.4688 45.3281C30.7708 45.3281 30.1979 45.1146 29.75 44.6875C29.3021 44.25 29.0781 43.7396 29.0781 43.1562Z" fill="white"/>
<rect x="9" y="9" width="46" height="46" rx="23" stroke="white" stroke-width="2"/>
</svg>
