<svg width="48" height="48" viewBox="0 0 48 48" fill="none" xmlns="http://www.w3.org/2000/svg">
<g clip-path="url(#clip0_9_32)">
<path opacity="0.8" d="M0 0H48V48H0V0Z" fill="url(#paint0_linear_9_32)"/>
<path d="M21.5469 30.1875C21.2969 29.4271 21.1719 28.6406 21.1719 27.8281C21.1719 26.9948 21.3646 26.2083 21.75 25.4688C22.1458 24.7188 22.8646 23.8646 23.9062 22.9062C25.1458 21.7708 25.9219 20.901 26.2344 20.2969C26.5469 19.6927 26.7031 19.0885 26.7031 18.4844C26.7031 17.5573 26.375 16.8229 25.7188 16.2812C25.0729 15.7396 24.2448 15.4688 23.2344 15.4688C21.3073 15.4688 19.599 16.2135 18.1094 17.7031V14C19.8594 12.9271 21.724 12.3906 23.7031 12.3906C25.7031 12.3906 27.3073 12.8854 28.5156 13.875C29.7344 14.8542 30.3438 16.2292 30.3438 18C30.3438 19.0312 30.1042 19.9948 29.625 20.8906C29.1562 21.776 28.2917 22.776 27.0312 23.8906C25.8229 24.9635 25.0729 25.7812 24.7812 26.3438C24.5 26.9062 24.3594 27.4688 24.3594 28.0312C24.3594 28.7292 24.5312 29.4479 24.875 30.1875H21.5469ZM21.0781 35.1562C21.0781 34.5521 21.3021 34.0365 21.75 33.6094C22.2083 33.1719 22.7552 32.9531 23.3906 32.9531C23.9948 32.9531 24.526 33.1615 24.9844 33.5781C25.4531 33.9948 25.6875 34.5208 25.6875 35.1562C25.6875 35.7604 25.4635 36.276 25.0156 36.7031C24.5781 37.1198 24.0625 37.3281 23.4688 37.3281C22.7708 37.3281 22.1979 37.1146 21.75 36.6875C21.3021 36.25 21.0781 35.7396 21.0781 35.1562Z" fill="white"/>
</g>
<rect x="1" y="1" width="46" height="46" rx="23" stroke="white" stroke-width="2"/>
<defs>
<linearGradient id="paint0_linear_9_32" x1="0" y1="24" x2="48" y2="24" gradientUnits="userSpaceOnUse">
<stop offset="0.208333" stop-color="#005853"/>
<stop offset="1" stop-color="#977801"/>
</linearGradient>
<clipPath id="clip0_9_32">
<rect width="48" height="48" rx="24" fill="white"/>
</clipPath>
</defs>
</svg>
